<?xml version="1.0" standalone="no"?>
<!DOCTYPE svg PUBLIC "-//W3C//DTD SVG 20010904//EN"
 "http://www.w3.org/TR/2001/REC-SVG-20010904/DTD/svg10.dtd">
<svg version="1.0" xmlns="http://www.w3.org/2000/svg"
 width="512.000000pt" height="512.000000pt" viewBox="0 0 512.000000 512.000000"
 preserveAspectRatio="xMidYMid meet">
<metadata>
Created by potrace 1.14, written by Peter Selinger 2001-2017
</metadata>
<g transform="translate(0.000000,512.000000) scale(0.100000,-0.100000)"
fill="#000000" stroke="none">
<path d="M2485 5101 c-26 -12 -179 -158 -439 -419 -219 -220 -403 -408 -409
-417 -15 -27 -11 -74 9 -96 9 -10 41 -28 71 -39 169 -63 312 -242 337 -420 12
-86 13 -107 5 -161 -15 -100 -42 -176 -88 -243 -150 -218 -422 -306 -661 -214
-143 55 -273 179 -316 300 -32 90 -70 119 -127 94 -45 -19 -827 -805 -850
-853 -21 -46 -20 -106 4 -153 9 -19 187 -204 394 -410 393 -392 445 -449 445
-485 0 -35 -36 -72 -88 -89 -88 -30 -204 -123 -261 -211 -209 -324 -40 -755
334 -850 240 -61 520 65 624 282 18 38 38 79 45 93 15 33 57 52 93 44 19 -5
161 -140 435 -413 266 -266 420 -412 445 -423 48 -21 109 -21 153 2 47 24 829
807 846 847 10 23 11 39 4 58 -10 26 -64 65 -91 65 -26 0 -133 74 -189 131
-141 145 -189 362 -123 561 42 126 127 232 245 303 184 110 413 103 593 -18
94 -63 161 -144 204 -247 13 -30 28 -61 34 -69 21 -25 56 -32 90 -17 36 15
822 797 844 840 23 45 26 116 6 159 -11 23 -172 193 -424 445 -334 335 -407
413 -413 441 -8 44 13 78 62 97 115 46 183 95 254 185 45 56 90 151 108 228
17 71 7 219 -19 293 -62 178 -216 320 -396 365 -58 15 -194 14 -259 -1 -153
-36 -302 -151 -366 -284 -17 -37 -37 -78 -44 -92 -15 -33 -57 -52 -93 -44 -19
5 -159 138 -434 412 -223 223 -418 411 -433 419 -46 24 -116 26 -161 4z"/>
</g>
</svg>
